<svg version="1.2" xmlns="http://www.w3.org/2000/svg" viewBox="0 0 800 720" width="800" height="720">
	<title>crown</title>
	<path class="s0" d="m120 720v-80h560v80zm0-140l-51-321q-2 0-4.5 0.5-2.5 0.5-4.5 0.5-25 0-42.5-17.5-17.5-17.5-17.5-42.5 0-25 17.5-42.5 17.5-17.5 42.5-17.5 25 0 42.5 17.5 17.5 17.5 17.5 42.5 0 7-1.5 13-1.5 6-3.5 11l125 56 125-171q-11-8-18-21-7-13-7-28 0-25 17.5-42.5 17.5-17.5 42.5-17.5 25 0 42.5 17.5 17.5 17.5 17.5 42.5 0 15-7 28-7 13-18 21l125 171 125-56q-2-5-3.5-11-1.5-6-1.5-13 0-25 17.5-42.5 17.5-17.5 42.5-17.5 25 0 42.5 17.5 17.5 17.5 17.5 42.5 0 25-17.5 42.5-17.5 17.5-42.5 17.5-2 0-4.5-0.5-2.5-0.5-4.5-0.5l-51 321zm68-80h424l26-167-105 46-133-183-133 183-105-46z"/>
</svg>