<svg version="1.2" xmlns="http://www.w3.org/2000/svg" viewBox="0 0 20 20" width="20" height="20">
	<title>settings-icon</title>
	<style>
		.s0 { fill: none }
	</style>
	<g>
		<path class="s0" d="m-2-2h24v24h-24z"/>
		<path class="s1" d="m17.6 11q0.1-0.5 0.1-1 0-0.5-0.1-1l2.2-1.6c0.2-0.2 0.3-0.5 0.1-0.7l-2-3.4c-0.1-0.2-0.4-0.3-0.7-0.2l-2.5 1q-0.8-0.6-1.7-1l-0.4-2.7c-0.1-0.2-0.3-0.4-0.5-0.4h-4.2c-0.2 0-0.4 0.2-0.5 0.4l-0.3 2.7q-1 0.4-1.8 1l-2.5-1c-0.3-0.1-0.5 0-0.7 0.2l-2 3.4c-0.1 0.3-0.1 0.5 0.1 0.7l2.2 1.6q-0.1 0.5-0.1 1 0 0.5 0.1 1l-2.2 1.6c-0.2 0.2-0.3 0.5-0.1 0.7l2 3.4c0.1 0.2 0.4 0.3 0.7 0.2l2.5-1q0.8 0.6 1.7 1l0.4 2.7c0.1 0.2 0.3 0.4 0.5 0.4h4.2c0.2 0 0.4-0.2 0.5-0.4l0.3-2.7q1-0.4 1.8-1l2.5 1c0.3 0.1 0.5 0 0.7-0.2l2-3.4c0.2-0.3 0.1-0.5-0.1-0.7zm-7.6 2.8c-2.2 0-3.9-1.7-3.9-3.8 0-2 1.7-3.7 3.9-3.7 2.1 0 3.8 1.7 3.8 3.7 0 2.1-1.7 3.8-3.8 3.8z"/>
	</g>
</svg>
